# xmcd
#
# Track frame offsets:
#	150
#	13790
#	31395
#	45125
#	57995
#	75447
#	90869
#	105055
#	119927
#	131037
#	148805
#	161839
#	173821
#
# Disc length: 2359 seconds
#
# Revision: 0
# Processed by: cddbd v1.5.2PL0 Copyright (c) Steve Scherf et al.
# Submitted via: audiograbber 1.83.01
#
DISCID=a009350d
DTITLE=Bob Wayne - 13 Truckin' Songs
DYEAR=2008
DGENRE=Country
TTITLE0=Mack
TTITLE1=Mornin' Time
TTITLE2=Devil's Son
TTITLE3=Showdown
TTITLE4=Chatterbox
TTITLE5=Left Behind
TTITLE6=Long Way Down
TTITLE7=The Laugh
TTITLE8=100k
TTITLE9=Movin' Out
TTITLE10=1985
TTITLE11=One For The Ladies
TTITLE12=Neath The Stone
EXTD=
EXTT0=
EXTT1=
EXTT2=
EXTT3=
EXTT4=
EXTT5=
EXTT6=
EXTT7=
EXTT8=
EXTT9=
EXTT10=
EXTT11=
EXTT12=
PLAYORDER=
